<svg width="60" height="61" viewBox="0 0 60 61" fill="none" xmlns="http://www.w3.org/2000/svg">
<path d="M25.0078 33.0728C21.756 33.1435 14.9981 33.2424 13.9801 33.0728C12.5098 16.3385 21.2376 9.6109 25.7854 8.33887V0C4.57837 3.61822 -0.15786 24.1215 0.124901 33.9208C0.0306478 41.129 -0.101307 56.1248 0.124901 58.4428C0.351109 60.7607 2.43411 61.0575 3.44733 60.9161C9.85655 60.9397 23.1416 60.9727 25.0078 60.9161C26.874 60.8596 27.3877 59.2437 27.4112 58.4428C27.4584 51.3759 27.5243 36.8465 27.4112 35.2635C27.2981 33.6806 25.7618 33.1435 25.0078 33.0728Z" fill="#410D43" fill-opacity="0.2"/>
<path d="M57.5341 33.0728C54.2824 33.1435 47.5244 33.2424 46.5065 33.0728C45.0362 16.3385 53.764 9.6109 58.3117 8.33887V0C37.1047 3.61822 32.3685 24.1215 32.6513 33.9208C32.557 41.129 32.4251 56.1248 32.6513 58.4428C32.8775 60.7607 34.9605 61.0575 35.9737 60.9161C42.3829 60.9397 55.6679 60.9727 57.5341 60.9161C59.4004 60.8596 59.914 59.2437 59.9376 58.4428C59.9847 51.3759 60.0507 36.8465 59.9376 35.2635C59.8245 33.6806 58.2882 33.1435 57.5341 33.0728Z" fill="#410D43" fill-opacity="0.2"/>
</svg>
