<svg width="35" height="35" viewBox="0 0 35 35" fill="none" xmlns="http://www.w3.org/2000/svg">
<path fill-rule="evenodd" clip-rule="evenodd" d="M0 17.5C0 7.83502 7.83502 0 17.5 0C27.165 0 35 7.83502 35 17.5C35 27.165 27.165 35 17.5 35C7.83502 35 0 27.165 0 17.5ZM12.3671 14.4943H8.40121V26.4101H12.3671V14.4943ZM12.6282 10.8082C12.6025 9.63989 11.767 8.75001 10.4103 8.75001C9.05358 8.75001 8.16661 9.63989 8.16661 10.8082C8.16661 11.9524 9.02736 12.8679 10.3588 12.8679H10.3841C11.767 12.8679 12.6282 11.9524 12.6282 10.8082ZM26.6695 19.5779C26.6695 15.9179 24.713 14.2145 22.1033 14.2145C19.9977 14.2145 19.055 15.371 18.5286 16.1824V14.4946H14.5622C14.6145 15.6127 14.5622 26.4104 14.5622 26.4104H18.5286V19.7556C18.5286 19.3995 18.5543 19.0442 18.6592 18.7893C18.9458 18.0778 19.5984 17.3412 20.6941 17.3412C22.1298 17.3412 22.7036 18.4339 22.7036 20.0351V26.4101H26.6694L26.6695 19.5779Z" fill="#5C2E5D"/>
</svg>
