<svg width="35" height="35" viewBox="0 0 35 35" fill="none" xmlns="http://www.w3.org/2000/svg">
<path fill-rule="evenodd" clip-rule="evenodd" d="M17.5 35C7.83502 35 0 27.165 0 17.5C0 7.83502 7.83502 0 17.5 0C27.165 0 35 7.83502 35 17.5C35 27.165 27.165 35 17.5 35ZM18.0768 27.2362C23.8142 27.2339 28.4805 22.5664 28.4828 16.8303C28.4839 14.0498 27.4025 11.4354 25.4379 9.46853C23.4732 7.50157 20.8605 6.41787 18.0767 6.41667C12.341 6.41667 7.67286 11.0846 7.67058 16.8221C7.6698 18.6561 8.14897 20.4462 9.05961 22.0244L7.58333 27.4167L13.0997 25.9696C14.6196 26.7986 16.3309 27.2356 18.0725 27.2362H18.0768Z" fill="#5C2E5D"/>
<path fill-rule="evenodd" clip-rule="evenodd" d="M13.3553 24.0858L10.0818 24.9445L10.9555 21.7529L10.7499 21.4256C9.88409 20.0486 9.42682 18.457 9.42749 16.8227C9.42938 12.054 13.3094 8.17432 18.0802 8.17432C20.3904 8.17512 22.562 9.0759 24.1949 10.7108C25.8279 12.3456 26.7267 14.5186 26.7258 16.8297C26.7239 21.5988 22.8439 25.4788 18.0768 25.4788H18.0733C16.5213 25.4782 14.9991 25.0613 13.6711 24.2732L13.3553 24.0858ZM23.3193 19.3048C23.2543 19.1964 23.081 19.1313 22.821 19.0011C22.561 18.871 21.2826 18.242 21.0442 18.1552C20.806 18.0684 20.6326 18.0251 20.4592 18.2853C20.2859 18.5456 19.7876 19.1313 19.636 19.3048C19.4843 19.4783 19.3326 19.5001 19.0727 19.3699C18.8127 19.2398 17.9749 18.9652 16.9817 18.0794C16.2087 17.3899 15.6869 16.5385 15.5352 16.2781C15.3836 16.0178 15.5191 15.8772 15.6492 15.7475C15.7662 15.631 15.9093 15.4437 16.0393 15.292C16.1693 15.1402 16.2126 15.0316 16.2993 14.8582C16.3859 14.6846 16.3426 14.5328 16.2776 14.4027C16.2126 14.2725 15.6926 12.9927 15.4759 12.4721C15.2649 11.9651 15.0505 12.0337 14.8909 12.0257C14.7394 12.0181 14.5659 12.0165 14.3926 12.0165C14.2193 12.0165 13.9375 12.0816 13.6992 12.3419C13.4609 12.6022 12.7892 13.2313 12.7892 14.511C12.7892 15.7909 13.7209 17.0272 13.8509 17.2007C13.9809 17.3744 15.6843 20.0006 18.2926 21.1268C18.913 21.3947 19.3973 21.5547 19.7749 21.6745C20.3978 21.8725 20.9647 21.8446 21.4126 21.7776C21.9122 21.703 22.9509 21.1486 23.1677 20.5413C23.3843 19.9338 23.3843 19.4132 23.3193 19.3048Z" fill="#5C2E5D"/>
</svg>
