<svg width="16" height="16" viewBox="0 0 16 16" fill="none" xmlns="http://www.w3.org/2000/svg">
<g clip-path="url(#clip0)">
<path d="M15.7345 7.85455C16.1054 7.51515 16.1054 6.93333 15.7345 6.59394L8.63521 0.0969694L8.58223 0.0484845C8.58223 0.0484845 8.52925 0.0484845 8.52925 -3.27112e-07C8.52925 -3.27112e-07 8.52925 -3.27112e-07 8.47627 -3.29428e-07L8.42329 -3.31743e-07L8.37031 -3.34059e-07L8.31733 -3.36375e-07L8.26435 -3.38691e-07L8.21137 -3.41007e-07L8.15839 -3.43323e-07C8.15839 -3.43323e-07 8.15839 -3.43323e-07 8.10541 -3.45638e-07L8.05243 -3.47954e-07C7.99945 -3.5027e-07 7.89349 -3.54902e-07 7.84051 -3.57218e-07C7.78753 -3.59533e-07 7.78753 -3.59533e-07 7.73455 -3.61849e-07L7.68157 -3.64165e-07L7.62859 -3.66481e-07C7.62859 -3.66481e-07 7.57561 -3.68797e-07 7.57561 0.0484845L7.52263 0.0969693C7.46965 0.145454 7.41667 0.145454 7.36369 0.193939L0.264351 6.69091C0.0524304 6.88485 -0.000549767 7.07879 -0.000549777 7.32121C-0.000549788 7.56364 0.10541 7.80606 0.264351 7.95151C0.635212 8.29091 1.27097 8.29091 1.64183 7.95151L6.93985 2.90909L6.93985 15.0788C6.93985 15.5636 7.36369 16 7.94647 16C8.52925 16 8.95309 15.6121 8.95309 15.0788L8.95309 2.90909L14.3571 7.85455C14.7279 8.24242 15.3637 8.24242 15.7345 7.85455Z" fill="white"/>
</g>
<defs>
<clipPath id="clip0">
<rect width="16" height="16" fill="white" transform="translate(16) rotate(90)"/>
</clipPath>
</defs>
</svg>
