<svg width="55" height="55" viewBox="0 0 55 55" fill="none" xmlns="http://www.w3.org/2000/svg">
<g filter="url(#filter0_d)">
<path fill-rule="evenodd" clip-rule="evenodd" d="M10 23.5C10 13.835 17.835 6 27.5 6C37.165 6 45 13.835 45 23.5C45 33.165 37.165 41 27.5 41C17.835 41 10 33.165 10 23.5ZM29.3241 33.7896V24.2687H31.9522L32.3005 20.9877H29.3241L29.3285 19.3456C29.3285 18.4899 29.4098 18.0313 30.6389 18.0313H32.2819V14.75H29.6534C26.496 14.75 25.3847 16.3416 25.3847 19.0182V20.9881H23.4167V24.2691H25.3847V33.7896H29.3241Z" fill="#5C2E5D"/>
</g>
<defs>
<filter id="filter0_d" x="0" y="0" width="55" height="55" filterUnits="userSpaceOnUse" color-interpolation-filters="sRGB">
<feFlood flood-opacity="0" result="BackgroundImageFix"/>
<feColorMatrix in="SourceAlpha" type="matrix" values="0 0 0 0 0 0 0 0 0 0 0 0 0 0 0 0 0 0 127 0"/>
<feOffset dy="4"/>
<feGaussianBlur stdDeviation="5"/>
<feColorMatrix type="matrix" values="0 0 0 0 0 0 0 0 0 0 0 0 0 0 0 0 0 0 0.25 0"/>
<feBlend mode="normal" in2="BackgroundImageFix" result="effect1_dropShadow"/>
<feBlend mode="normal" in="SourceGraphic" in2="effect1_dropShadow" result="shape"/>
</filter>
</defs>
</svg>
