<svg width="35" height="35" viewBox="0 0 35 35" fill="none" xmlns="http://www.w3.org/2000/svg">
<path fill-rule="evenodd" clip-rule="evenodd" d="M17.5 35C7.83502 35 0 27.165 0 17.5C0 7.83502 7.83502 0 17.5 0C27.165 0 35 7.83502 35 17.5C35 27.165 27.165 35 17.5 35ZM18.0768 27.2362C23.8142 27.2339 28.4805 22.5664 28.4828 16.8303C28.4839 14.0498 27.4025 11.4354 25.4379 9.46853C23.4732 7.50157 20.8605 6.41787 18.0767 6.41667C12.341 6.41667 7.67286 11.0846 7.67058 16.8221C7.6698 18.6561 8.14897 20.4462 9.05961 22.0244L7.58333 27.4167L13.0997 25.9696C14.6196 26.7986 16.3309 27.2356 18.0725 27.2362H18.0768Z" fill="white"/>
<path fill-rule="evenodd" clip-rule="evenodd" d="M13.3555 24.0858L10.082 24.9445L10.9558 21.7529L10.7501 21.4256C9.88433 20.0486 9.42706 18.457 9.42774 16.8227C9.42963 12.054 13.3096 8.17432 18.0804 8.17432C20.3906 8.17512 22.5622 9.0759 24.1952 10.7108C25.8281 12.3456 26.7269 14.5186 26.726 16.8297C26.7241 21.5988 22.8442 25.4788 18.077 25.4788H18.0735C16.5215 25.4782 14.9993 25.0613 13.6714 24.2732L13.3555 24.0858ZM23.3195 19.3048C23.2545 19.1964 23.0812 19.1313 22.8212 19.0011C22.5612 18.871 21.2829 18.242 21.0445 18.1552C20.8062 18.0684 20.6328 18.0251 20.4595 18.2853C20.2862 18.5456 19.7879 19.1313 19.6362 19.3048C19.4845 19.4783 19.3328 19.5001 19.0729 19.3699C18.8129 19.2398 17.9751 18.9652 16.9819 18.0794C16.209 17.3899 15.6872 16.5385 15.5355 16.2781C15.3838 16.0178 15.5193 15.8772 15.6495 15.7475C15.7665 15.631 15.9095 15.4437 16.0395 15.292C16.1695 15.1402 16.2128 15.0316 16.2995 14.8582C16.3862 14.6846 16.3429 14.5328 16.2778 14.4027C16.2128 14.2725 15.6928 12.9927 15.4762 12.4721C15.2651 11.9651 15.0508 12.0337 14.8912 12.0257C14.7397 12.0181 14.5661 12.0165 14.3928 12.0165C14.2195 12.0165 13.9378 12.0816 13.6995 12.3419C13.4611 12.6022 12.7894 13.2313 12.7894 14.511C12.7894 15.7909 13.7211 17.0272 13.8511 17.2007C13.9811 17.3744 15.6846 20.0006 18.2929 21.1268C18.9132 21.3947 19.3975 21.5547 19.7752 21.6745C20.398 21.8725 20.9649 21.8446 21.4128 21.7776C21.9124 21.703 22.9512 21.1486 23.1679 20.5413C23.3845 19.9338 23.3845 19.4132 23.3195 19.3048Z" fill="white"/>
</svg>
