<svg width="55" height="55" viewBox="0 0 55 55" fill="none" xmlns="http://www.w3.org/2000/svg">
<g filter="url(#filter0_d)">
<path fill-rule="evenodd" clip-rule="evenodd" d="M27.5 41C17.835 41 10 33.165 10 23.5C10 13.835 17.835 6 27.5 6C37.165 6 45 13.835 45 23.5C45 33.165 37.165 41 27.5 41ZM28.0768 33.2362C33.8142 33.2339 38.4805 28.5664 38.4828 22.8303C38.4839 20.0498 37.4025 17.4354 35.4379 15.4685C33.4732 13.5016 30.8605 12.4179 28.0767 12.4167C22.341 12.4167 17.6729 17.0846 17.6706 22.8221C17.6698 24.6561 18.149 26.4462 19.0596 28.0244L17.5833 33.4167L23.0997 31.9696C24.6196 32.7986 26.3309 33.2356 28.0725 33.2362H28.0768Z" fill="#5C2E5D"/>
<path fill-rule="evenodd" clip-rule="evenodd" d="M23.3555 30.0858L20.082 30.9445L20.9558 27.7529L20.7501 27.4256C19.8843 26.0486 19.4271 24.457 19.4277 22.8227C19.4296 18.054 23.3096 14.1743 28.0804 14.1743C30.3906 14.1751 32.5622 15.0759 34.1952 16.7108C35.8281 18.3456 36.7269 20.5186 36.726 22.8297C36.7241 27.5988 32.8442 31.4788 28.077 31.4788H28.0735C26.5215 31.4782 24.9993 31.0613 23.6714 30.2732L23.3555 30.0858ZM33.3195 25.3048C33.2545 25.1964 33.0812 25.1313 32.8212 25.0011C32.5612 24.871 31.2829 24.242 31.0445 24.1552C30.8062 24.0684 30.6328 24.0251 30.4595 24.2853C30.2862 24.5456 29.7879 25.1313 29.6362 25.3048C29.4845 25.4783 29.3328 25.5001 29.0729 25.3699C28.8129 25.2398 27.9751 24.9652 26.9819 24.0794C26.209 23.3899 25.6872 22.5385 25.5355 22.2781C25.3838 22.0178 25.5193 21.8772 25.6495 21.7475C25.7665 21.631 25.9095 21.4437 26.0395 21.292C26.1695 21.1402 26.2128 21.0316 26.2995 20.8582C26.3862 20.6846 26.3429 20.5328 26.2778 20.4027C26.2128 20.2725 25.6928 18.9927 25.4762 18.4721C25.2651 17.9651 25.0508 18.0337 24.8912 18.0257C24.7397 18.0181 24.5661 18.0165 24.3928 18.0165C24.2195 18.0165 23.9378 18.0816 23.6995 18.3419C23.4611 18.6022 22.7894 19.2313 22.7894 20.511C22.7894 21.7909 23.7211 23.0272 23.8511 23.2007C23.9811 23.3744 25.6846 26.0006 28.2929 27.1268C28.9132 27.3947 29.3975 27.5547 29.7752 27.6745C30.398 27.8725 30.9649 27.8446 31.4128 27.7776C31.9124 27.703 32.9512 27.1486 33.1679 26.5413C33.3845 25.9338 33.3845 25.4132 33.3195 25.3048Z" fill="#5C2E5D"/>
</g>
<defs>
<filter id="filter0_d" x="0" y="0" width="55" height="55" filterUnits="userSpaceOnUse" color-interpolation-filters="sRGB">
<feFlood flood-opacity="0" result="BackgroundImageFix"/>
<feColorMatrix in="SourceAlpha" type="matrix" values="0 0 0 0 0 0 0 0 0 0 0 0 0 0 0 0 0 0 127 0"/>
<feOffset dy="4"/>
<feGaussianBlur stdDeviation="5"/>
<feColorMatrix type="matrix" values="0 0 0 0 0 0 0 0 0 0 0 0 0 0 0 0 0 0 0.25 0"/>
<feBlend mode="normal" in2="BackgroundImageFix" result="effect1_dropShadow"/>
<feBlend mode="normal" in="SourceGraphic" in2="effect1_dropShadow" result="shape"/>
</filter>
</defs>
</svg>
