<svg width="54" height="54" viewBox="0 0 54 54" fill="none" xmlns="http://www.w3.org/2000/svg">
<path fill-rule="evenodd" clip-rule="evenodd" d="M26.915 53.83C12.0503 53.83 0 41.7797 0 26.915C0 12.0503 12.0503 0 26.915 0C41.7797 0 53.83 12.0503 53.83 26.915C53.83 41.7797 41.7797 53.83 26.915 53.83ZM27.8022 41.8893C36.6263 41.8857 43.803 34.7072 43.8066 25.8849C43.8083 21.6086 42.1451 17.5876 39.1234 14.5626C36.1018 11.5374 32.0834 9.87068 27.802 9.86883C18.9805 9.86883 11.8009 17.0481 11.7973 25.8723C11.7961 28.6931 12.5331 31.4463 13.9337 33.8735L11.6632 42.1668L20.1474 39.9412C22.485 41.2163 25.117 41.8884 27.7955 41.8893H27.8022Z" fill="#5C2E5D"/>
<path fill-rule="evenodd" clip-rule="evenodd" d="M20.5407 37.0439L15.506 38.3646L16.8499 33.4558L16.5336 32.9525C15.202 30.8346 14.4987 28.3868 14.4998 25.8732C14.5027 18.5389 20.4701 12.572 27.8076 12.572C31.3607 12.5733 34.7006 13.9587 37.2121 16.4731C39.7236 18.9875 41.1059 22.3296 41.1045 25.884C41.1016 33.2189 35.1342 39.1864 27.8024 39.1864H27.797C25.41 39.1854 23.0688 38.5441 21.0264 37.3322L20.5407 37.0439ZM35.8653 29.6907C35.7654 29.5239 35.4988 29.4239 35.0989 29.2236C34.699 29.0235 32.733 28.0561 32.3663 27.9226C31.9998 27.7892 31.7331 27.7225 31.4666 28.1227C31.2001 28.523 30.4337 29.4239 30.2004 29.6907C29.9671 29.9576 29.7338 29.9911 29.3341 29.7908C28.9342 29.5907 27.6456 29.1684 26.1181 27.806C24.9293 26.7456 24.1267 25.4361 23.8935 25.0357C23.6602 24.6353 23.8686 24.419 24.0688 24.2196C24.2487 24.0403 24.4687 23.7524 24.6687 23.519C24.8686 23.2855 24.9352 23.1186 25.0685 22.8519C25.2018 22.5849 25.1352 22.3514 25.0352 22.1513C24.9352 21.9511 24.1355 19.9827 23.8023 19.182C23.4776 18.4022 23.148 18.5078 22.9025 18.4955C22.6695 18.4838 22.4026 18.4813 22.1361 18.4813C21.8695 18.4813 21.4362 18.5814 21.0697 18.9818C20.7031 19.3822 19.6701 20.3496 19.6701 22.3179C19.6701 24.2863 21.103 26.1878 21.3029 26.4547C21.5029 26.7217 24.1228 30.7608 28.1344 32.493C29.0885 32.905 29.8333 33.1511 30.4141 33.3354C31.3721 33.6398 32.2439 33.5968 32.9328 33.4938C33.7012 33.3791 35.2988 32.5265 35.6322 31.5924C35.9653 30.6581 35.9653 29.8575 35.8653 29.6907Z" fill="#5C2E5D"/>
</svg>
